<?xml version="1.0" encoding="utf-8"?>
<!-- Generator: Adobe Illustrator 19.2.1, SVG Export Plug-In . SVG Version: 6.00 Build 0)  -->
<svg version="1.1" id="layer" xmlns="http://www.w3.org/2000/svg" xmlns:xlink="http://www.w3.org/1999/xlink" x="0px" y="0px"
	 viewBox="0 0 652 652" style="enable-background:new 0 0 652 652;" xml:space="preserve">
<style type="text/css">
	.st0{fill:#EF4135;}
</style>
<g>
	<path class="st0" d="M20.6,411.9h50.5l9.6-25.8h37.4v25.8h50.9V231.3H88.1L20.6,411.9z M117.8,286.8v48.1H99.7L117.8,286.8z
		 M244.9,358.9c-5.8,0-9.7-4.5-8.7-10l8.6-51.5c0.9-5.5,6.3-10,12.1-10h48.6l10.7-56h-78.9c-26.4,0-34.9,27.8-35.7,34.5
		c-0.5,4.7-17.8,105.9-17.8,105.9s-7.4,40,26.5,40h71.5l10.1-52.9h-37.3H244.9z M607.9,386.9c-7.1,0-12.7,5.7-12.7,12.7
		c0,7,5.6,12.7,12.7,12.7c7,0,12.7-5.7,12.7-12.7C620.6,392.6,614.9,386.9,607.9,386.9 M607.9,409.3c-5.5,0-9.3-4-9.3-9.7
		s3.8-9.7,9.3-9.7c5.4,0,9.3,4,9.3,9.7S613.3,409.3,607.9,409.3 M429.4,231.5L399.8,306v-74.7H338l-34.6,180.6h47.8l14.5-76.3
		l5.6,76.3h26.2l29.4-76.3l-14.8,76.3h45.5l34.5-180.4H429.4z M614.6,397c0-3.2-1.7-4.2-5.3-4.2h-6.6v13.7h2.9v-5.8h2.3l3.1,5.8h3.3
		l-3.3-5.8C613.3,400.5,614.6,399.5,614.6,397 M609.3,398.7h-3.8v-3.8h3.1c1.3,0,3.3-0.1,3.3,1.7
		C611.9,398.3,610.8,398.7,609.3,398.7 M594.8,338.6l7.3-38.2h-50.4l3.3-17.2h50.4l9.9-51.9H514.9l-34.5,180.6h100.4l10.5-55.4
		h-50.3l3.4-17.9H594.8z"/>
</g>
</svg>
